# Blender 4.0.2
# www.blender.org
mtllib untitled.mtl
o Cylinder
v 0.000000 -0.374928 -1.158105
v 1.002947 -0.374928 -0.579052
v 1.002947 -0.374928 0.579052
v 0.000000 -0.374928 1.158105
v -1.002947 -0.374928 0.579052
v -1.002947 -0.374928 -0.579052
v 1.002947 0.065166 -0.579052
v 0.000000 0.065166 -1.158105
v 1.002947 0.065166 0.579052
v 0.000000 0.065166 1.158105
v -1.002947 0.065166 0.579052
v -1.002947 0.065166 -0.579052
v 0.876399 0.063680 -0.505989
v 0.000000 0.063680 -1.011978
v 0.876399 0.063680 0.505989
v 0.000000 0.063680 1.011978
v -0.876399 0.063680 0.505989
v -0.876399 0.063680 -0.505989
vn 0.5000 -0.0000 -0.8660
vn 1.0000 -0.0000 -0.0000
vn 0.5000 -0.0000 0.8660
vn -0.5000 -0.0000 0.8660
vn -1.0000 -0.0000 -0.0000
vn -0.5000 -0.0000 -0.8660
vn -0.0000 -1.0000 -0.0000
vn -0.0000 1.0000 -0.0000
vt 1.000000 0.500000
vt 1.000000 1.000000
vt 0.833333 1.000000
vt 0.833333 0.500000
vt 0.666667 1.000000
vt 0.666667 0.500000
vt 0.500000 1.000000
vt 0.500000 0.500000
vt 0.333333 1.000000
vt 0.333333 0.500000
vt 0.166667 1.000000
vt 0.166667 0.500000
vt -0.000000 1.000000
vt -0.000000 0.500000
vt 0.750000 0.490000
vt 0.957846 0.370000
vt 0.957846 0.130000
vt 0.750000 0.010000
vt 0.542154 0.130000
vt 0.542154 0.370000
vt 0.250000 0.459718
vt 0.431621 0.354859
vt 0.457846 0.370000
vt 0.250000 0.490000
vt 0.431621 0.145141
vt 0.457846 0.130000
vt 0.250000 0.040283
vt 0.250000 0.010000
vt 0.068379 0.145141
vt 0.042154 0.130000
vt 0.068379 0.354859
vt 0.042154 0.370000
s 0
usemtl Water
f 1/1/1 8/2/1 7/3/1 2/4/1
f 2/4/2 7/3/2 9/5/2 3/6/2
f 3/6/3 9/5/3 10/7/3 4/8/3
f 4/8/4 10/7/4 11/9/4 5/10/4
f 5/10/5 11/9/5 12/11/5 6/12/5
f 6/12/6 12/11/6 8/13/6 1/14/6
f 1/15/7 2/16/7 3/17/7 4/18/7 5/19/7 6/20/7
f 14/21/8 13/22/8 7/23/8 8/24/8
f 13/22/8 15/25/8 9/26/8 7/23/8
f 15/25/8 16/27/8 10/28/8 9/26/8
f 16/27/8 17/29/8 11/30/8 10/28/8
f 17/29/8 18/31/8 12/32/8 11/30/8
f 18/31/8 14/21/8 8/24/8 12/32/8
usemtl Selection/water
f 13/22/8 14/21/8 18/31/8 17/29/8 16/27/8 15/25/8
o Cylinder.001
v 0.000000 0.150613 -1.158105
v 0.000000 0.233736 -1.108114
v 1.002947 0.150613 -0.579052
v 0.959656 0.233736 -0.554057
v 1.002947 0.150613 0.579052
v 0.959656 0.233736 0.554057
v 0.000000 0.150613 1.158105
v 0.000000 0.233736 1.108114
v -1.002947 0.150613 0.579052
v -0.959656 0.233736 0.554057
v -1.002947 0.150613 -0.579052
v -0.959656 0.233736 -0.554057
v 1.002947 0.229927 -0.579052
v 0.000000 0.229927 -1.158105
v 1.002947 0.229927 0.579052
v 0.000000 0.229927 1.158105
v -1.002947 0.229927 0.579052
v -1.002947 0.229927 -0.579052
v 0.959656 0.145921 -0.554057
v 0.000000 0.145921 -1.108114
v 0.959656 0.145921 0.554057
v 0.000000 0.145921 1.108114
v -0.959656 0.145921 0.554057
v -0.959656 0.145921 -0.554057
vn 0.5000 -0.0000 -0.8660
vn 1.0000 -0.0000 -0.0000
vn 0.5000 -0.0000 0.8660
vn -0.5000 -0.0000 0.8660
vn -1.0000 -0.0000 -0.0000
vn -0.5000 -0.0000 -0.8660
vn 0.0438 0.9962 -0.0759
vn 0.0877 0.9962 -0.0000
vn 0.0438 0.9962 0.0759
vn -0.0438 0.9962 0.0759
vn -0.0877 0.9962 -0.0000
vn -0.0438 0.9962 -0.0759
vn 0.0539 -0.9942 -0.0933
vn -0.0539 -0.9942 -0.0933
vn -0.1078 -0.9942 -0.0000
vn -0.0539 -0.9942 0.0933
vn 0.0539 -0.9942 0.0933
vn 0.1078 -0.9942 -0.0000
vt 1.000000 0.500000
vt 1.000000 1.000000
vt 0.833333 1.000000
vt 0.833333 0.500000
vt 0.666667 1.000000
vt 0.666667 0.500000
vt 0.500000 1.000000
vt 0.500000 0.500000
vt 0.333333 1.000000
vt 0.333333 0.500000
vt 0.068379 0.354859
vt 0.068379 0.145141
vt 0.166667 1.000000
vt 0.166667 0.500000
vt -0.000000 1.000000
vt -0.000000 0.500000
vt 0.250000 0.459718
vt 0.431621 0.354859
vt 0.457846 0.370000
vt 0.250000 0.490000
vt 0.431621 0.145141
vt 0.457846 0.130000
vt 0.250000 0.040283
vt 0.250000 0.010000
vt 0.042154 0.130000
vt 0.042154 0.370000
s 0
usemtl Grid
f 19/33/9 32/34/9 31/35/9 21/36/9
f 21/36/10 31/35/10 33/37/10 23/38/10
f 23/38/11 33/37/11 34/39/11 25/40/11
f 25/40/12 34/39/12 35/41/12 27/42/12
f 30/43/10 28/44/10 41/44/10 42/43/10
f 27/42/13 35/41/13 36/45/13 29/46/13
f 29/46/14 36/45/14 32/47/14 19/48/14
f 20/49/15 22/50/15 31/51/15 32/52/15
f 22/50/16 24/53/16 33/54/16 31/51/16
f 24/53/17 26/55/17 34/56/17 33/54/17
f 26/55/18 28/44/18 35/57/18 34/56/18
f 28/44/19 30/43/19 36/58/19 35/57/19
f 30/43/20 20/49/20 32/52/20 36/58/20
f 26/55/14 24/53/14 39/53/14 40/55/14
f 22/50/12 20/49/12 38/49/12 37/50/12
f 20/49/11 30/43/11 42/43/11 38/49/11
f 28/44/9 26/55/9 40/55/9 41/44/9
f 24/53/13 22/50/13 37/50/13 39/53/13
f 19/33/21 21/36/21 37/50/21 38/49/21
f 29/46/22 19/33/22 38/49/22 42/43/22
f 29/46/23 42/43/23 41/44/23 27/42/23
f 27/42/24 41/44/24 40/55/24 25/40/24
f 25/40/25 40/55/25 39/53/25 23/38/25
f 23/38/26 39/53/26 37/50/26 21/36/26
